<svg width="320" height="51" xmlns="http://www.w3.org/2000/svg"><g fill-rule="nonzero" fill="none"><path d="M.734 47.375V7.5c0-.917.245-1.656.735-2.219.49-.562 1.245-.843 2.265-.843H14.86c4.459 0 8.037 1.37 10.735 4.109 2.698 2.74 4.047 6.15 4.047 10.234 0 3.98-1.391 7.339-4.172 10.078-2.782 2.74-6.245 4.11-10.39 4.11h-8.72v14.406c0 .917-.255 1.646-.765 2.188-.51.541-1.193.812-2.047.812-.854 0-1.537-.27-2.047-.813-.51-.541-.766-1.27-.766-2.187zm5.625-19.25h8.313c2.73 0 4.969-.896 6.719-2.688 1.75-1.791 2.625-4.01 2.625-6.656 0-1.187-.177-2.317-.532-3.39a10.176 10.176 0 0 0-1.609-3.016c-.719-.938-1.719-1.687-3-2.25s-2.766-.844-4.453-.844H6.359v18.844zm27.563 19.25V3.594c0-.917.255-1.646.766-2.188.51-.541 1.192-.812 2.046-.812.855 0 1.537.27 2.047.812.51.542.766 1.271.766 2.188v16.312l.125.157c2.354-3 5.49-4.5 9.406-4.5 1.104 0 2.188.135 3.25.406 1.063.27 2.12.734 3.172 1.39a11.37 11.37 0 0 1 2.766 2.422c.791.959 1.432 2.188 1.922 3.688s.734 3.177.734 5.031v18.875c0 .917-.255 1.646-.766 2.188-.51.541-1.192.812-2.047.812-.854 0-1.536-.27-2.047-.813-.51-.541-.765-1.27-.765-2.187V28.812c0-1.416-.234-2.682-.703-3.796-.469-1.115-1.089-1.995-1.86-2.641a8.212 8.212 0 0 0-2.5-1.453 8.23 8.23 0 0 0-2.812-.485 8.23 8.23 0 0 0-2.813.485 8.212 8.212 0 0 0-2.5 1.453c-.77.646-1.39 1.526-1.859 2.64-.469 1.115-.703 2.38-.703 3.797v18.563c0 .917-.255 1.646-.766 2.188-.51.541-1.192.812-2.047.812-.854 0-1.536-.27-2.047-.813-.51-.541-.765-1.27-.765-2.187zM68.547 41.5c-1.125-2.604-1.688-5.448-1.688-8.531 0-3.084.568-5.922 1.704-8.516 1.135-2.594 2.859-4.724 5.171-6.39 2.313-1.667 5.01-2.5 8.094-2.5 1.875 0 3.542.38 5 1.14 1.458.76 2.886 1.901 4.281 3.422h.125v-1.813c0-.895.271-1.578.813-2.046.542-.47 1.146-.703 1.812-.703.646 0 1.245.234 1.797.703.552.468.828 1.15.828 2.047v29.312c0 .896-.276 1.578-.828 2.047-.552.469-1.15.703-1.797.703-.666 0-1.27-.234-1.812-.703s-.813-1.151-.813-2.047V45.25h-.125c-2.395 3.417-5.49 5.125-9.28 5.125-3.084 0-5.782-.833-8.095-2.5-2.312-1.667-4.041-3.792-5.187-6.375zm4.219-12.031a21.263 21.263 0 0 0-.282 3.5c0 1.208.1 2.385.297 3.531a14.77 14.77 0 0 0 1.016 3.375c.479 1.104 1.062 2.068 1.75 2.89.687.824 1.573 1.49 2.656 2 1.083.511 2.292.766 3.625.766 1.333 0 2.542-.255 3.625-.765 1.083-.51 1.969-1.177 2.656-2 .688-.823 1.271-1.787 1.75-2.891a14.77 14.77 0 0 0 1.016-3.375c.198-1.146.297-2.323.297-3.531 0-1.209-.1-2.38-.297-3.516a14.805 14.805 0 0 0-1.016-3.36c-.479-1.103-1.062-2.072-1.75-2.905-.687-.834-1.573-1.5-2.656-2-1.083-.5-2.292-.75-3.625-.75-1.333 0-2.542.25-3.625.75-1.083.5-1.969 1.166-2.656 2-.688.833-1.271 1.802-1.75 2.906a15.358 15.358 0 0 0-1.031 3.375zm31.125 17.906V18.562c0-.916.255-1.645.765-2.187.51-.542 1.193-.813 2.047-.813.854 0 1.537.271 2.047.813.51.542.766 1.27.766 2.188v2.906h.125c.729-1.48 1.817-2.834 3.265-4.063 1.448-1.229 2.922-1.843 4.422-1.843.958 0 1.719.27 2.281.812.563.542.844 1.23.844 2.063 0 1.625-1.167 2.656-3.5 3.093a8.81 8.81 0 0 0-2.578.844c-.823.417-1.615.984-2.375 1.703-.76.719-1.365 1.693-1.813 2.922-.447 1.23-.671 2.625-.671 4.188v16.187c0 .917-.256 1.646-.766 2.188-.51.541-1.193.812-2.047.812-.854 0-1.536-.27-2.047-.813-.51-.541-.765-1.27-.765-2.187zm20.156 0V18.562c0-.916.255-1.645.766-2.187.51-.542 1.192-.813 2.046-.813.855 0 1.537.271 2.047.813.51.542.766 1.27.766 2.188v1.03l.125.126c.437-.563.849-1.031 1.234-1.407.386-.375.922-.802 1.61-1.28.687-.48 1.515-.844 2.484-1.095.969-.25 2.057-.374 3.266-.374 3.958 0 7.073 1.916 9.343 5.75 1.334-1.917 2.813-3.355 4.438-4.313 1.625-.958 3.614-1.438 5.969-1.438 1.104 0 2.187.136 3.25.407 1.062.27 2.12.734 3.172 1.39a11.37 11.37 0 0 1 2.765 2.422c.792.959 1.432 2.188 1.922 3.688s.734 3.177.734 5.031v18.875c0 .917-.255 1.646-.765 2.188-.51.541-1.193.812-2.047.812-.854 0-1.537-.27-2.047-.813-.51-.541-.766-1.27-.766-2.187V28.312c0-2.458-.64-4.385-1.922-5.78-1.28-1.397-3.067-2.095-5.359-2.095-2.25 0-4.02.704-5.312 2.11-1.292 1.406-1.938 3.328-1.938 5.765v19.063c0 .917-.255 1.646-.766 2.188-.51.541-1.192.812-2.046.812-.855 0-1.537-.27-2.047-.813-.51-.541-.766-1.27-.766-2.187V28.312c0-2.437-.646-4.359-1.937-5.765-1.292-1.406-3.084-2.11-5.375-2.11-2.25 0-4.016.704-5.297 2.11-1.282 1.406-1.922 3.328-1.922 5.765v19.063c0 .917-.255 1.646-.766 2.188-.51.541-1.192.812-2.047.812-.854 0-1.536-.27-2.046-.813-.51-.541-.766-1.27-.766-2.187zm49.906-41.031c0-.604.234-1.136.703-1.594.469-.458 1.068-.688 1.797-.688.542 0 .995.079 1.36.235.364.156.687.453.968.89.282.438.474.787.578 1.047.105.26.292.745.563 1.454l11.5 33.218h.125l11.531-33.218c.271-.709.458-1.193.563-1.454.104-.26.296-.609.578-1.046.281-.438.604-.735.969-.891.364-.156.817-.234 1.359-.234.729 0 1.323.229 1.781.687.458.458.688.99.688 1.594 0 .687-.125 1.416-.375 2.187l-13.875 38.782c-.355 1.041-.766 1.812-1.235 2.312-.469.5-1.15.75-2.047.75-.875 0-1.546-.25-2.015-.75-.469-.5-.88-1.27-1.235-2.313l-13.906-38.78c-.25-.772-.375-1.5-.375-2.188zm39.25 35.156c-1.125-2.604-1.687-5.448-1.687-8.531 0-3.084.567-5.922 1.703-8.516 1.135-2.594 2.86-4.724 5.172-6.39 2.312-1.667 5.01-2.5 8.093-2.5 1.875 0 3.542.38 5 1.14 1.459.76 2.886 1.901 4.282 3.422h.125v-1.813c0-.895.27-1.578.812-2.046.542-.47 1.146-.703 1.813-.703.645 0 1.244.234 1.797.703.552.468.828 1.15.828 2.047v29.312c0 .896-.276 1.578-.828 2.047-.553.469-1.152.703-1.797.703-.667 0-1.271-.234-1.813-.703s-.812-1.151-.812-2.047V45.25h-.125c-2.396 3.417-5.49 5.125-9.282 5.125-3.083 0-5.78-.833-8.093-2.5-2.313-1.667-4.042-3.792-5.188-6.375zm4.219-12.031a21.263 21.263 0 0 0-.281 3.5c0 1.208.099 2.385.297 3.531a14.77 14.77 0 0 0 1.015 3.375c.48 1.104 1.063 2.068 1.75 2.89.688.824 1.573 1.49 2.656 2 1.084.511 2.292.766 3.625.766 1.334 0 2.542-.255 3.625-.765 1.084-.51 1.97-1.177 2.657-2s1.27-1.787 1.75-2.891a14.77 14.77 0 0 0 1.015-3.375c.198-1.146.297-2.323.297-3.531 0-1.209-.099-2.38-.297-3.516a14.805 14.805 0 0 0-1.015-3.36c-.48-1.103-1.063-2.072-1.75-2.905-.688-.834-1.573-1.5-2.657-2-1.083-.5-2.291-.75-3.625-.75-1.333 0-2.541.25-3.625.75-1.083.5-1.968 1.166-2.656 2-.687.833-1.27 1.802-1.75 2.906a15.358 15.358 0 0 0-1.031 3.375zm31.125 17.906V18.562c0-.916.255-1.645.766-2.187.51-.542 1.192-.813 2.046-.813.855 0 1.537.271 2.047.813.51.542.766 1.27.766 2.188v2.906h.125c.729-1.48 1.818-2.834 3.266-4.063 1.447-1.229 2.921-1.843 4.421-1.843.959 0 1.72.27 2.282.812s.843 1.23.843 2.063c0 1.625-1.166 2.656-3.5 3.093a8.81 8.81 0 0 0-2.578.844c-.823.417-1.614.984-2.375 1.703-.76.719-1.364 1.693-1.812 2.922-.448 1.23-.672 2.625-.672 4.188v16.187c0 .917-.255 1.646-.766 2.188-.51.541-1.192.812-2.047.812-.854 0-1.536-.27-2.047-.813-.51-.541-.765-1.27-.765-2.187z" fill="#016BA9"/><path d="M294.64 29.666c-2.274-.762-2.938-1.894-2.499-4.26.385-2.078.391-5.623.013-7.81-.242-1.402-.212-1.824.183-2.607 1.219-2.412 6.142-2.703 8.027-.474.608.718.633.9.416 3.026-.29 2.853-.288 4.809.012 7.905.259 1.545.483 2.236-.676 3.253-1.466 1.286-3.469 1.64-5.475.967z" fill="#FED03F"/><path d="M294.007 48.496c-1.705-.816-2.185-1.893-1.81-4.063.38-2.206.372-5.76-.019-7.87-.277-1.495-.251-1.787.22-2.56.297-.487 1.095-1.147 1.805-1.493 2.188-1.067 5.481-.386 6.516 1.347.358.6.367 1.123.067 3.661-.277 2.347-.277 3.577 0 5.924.39 3.295.253 3.824-1.264 4.884-1.178.822-3.97.908-5.515.17z" fill="#6DA8DA"/><path d="M274.226 33.648c-1.02-.427-1.992-1.404-2.2-2.211-.083-.324.037-1.793.267-3.266.37-2.369.369-2.995-.007-5.405-.48-3.075-.295-3.935 1.063-4.94 1.56-1.153 4.896-1.088 6.43.126 1.318 1.042 1.434 1.599.97 4.674-.336 2.233-.35 3.171-.076 5.132.185 1.32.332 2.79.327 3.266-.011 1.015-.954 2.096-2.298 2.634-1.148.46-3.362.455-4.476-.01z" fill="#A2CE5D"/><path d="M314.192 37.887c-1.304-.238-2.443-1.006-2.948-1.987-.305-.59-.319-1.124-.07-2.711.17-1.087.309-2.744.309-3.682 0-.939-.14-2.596-.31-3.683-.248-1.586-.234-2.12.07-2.711 1.249-2.421 5.667-2.867 7.79-.787 1.56 1.172.79 3.057.682 4.77-.304 2.771-.307 3.671-.01 6.398.214 1.97.186 2.18-.384 2.863-1.104 1.321-3.069 1.908-5.129 1.53z" fill="#ECA91D"/><path d="M285.53 46.72c-.493-.15-1.25-.622-1.682-1.05-.876-.865-.9-1.132-.517-5.608.146-1.71.105-3.399-.122-4.969-.3-2.08-.287-2.481.106-3.2 1.27-2.327 6.193-2.568 8.019-.393.603.719.628.901.412 3.029-.294 2.886-.292 3.474.008 6.38.047 1.832.805 3.435-.598 4.763-1.31 1.24-3.596 1.665-5.627 1.047z" fill="#AB4197"/><path d="M284.1 27.646c-2.06-.826-2.448-2.065-1.835-5.878.217-1.354.201-2.717-.058-4.98-.41-3.56-.26-4.15 1.26-5.004 2.107-1.181 4.875-1.012 6.548.4 1.04.878 1.055.922.933 2.576-.16 2.165-.16 7.336 0 9.447.111 1.466.047 1.719-.6 2.364-.397.398-1.142.887-1.654 1.088-1.175.46-3.428.454-4.594-.013z" fill="#F26B23"/><path d="M303.262 43.494c-.694-.34-1.516-.947-1.826-1.348-.54-.696-.548-.856-.19-3.688.306-2.42.308-3.463.012-5.718-.199-1.516-.28-3.065-.179-3.44.1-.377.641-1.013 1.202-1.415 2.169-1.555 6.18-.974 7.349 1.065.444.776.467 1.094.184 2.62-.406 2.19-.412 5.318-.015 7.722.273 1.653.248 1.953-.223 2.711-1.158 1.865-4.126 2.565-6.314 1.49z" fill="#3DAF48"/><path d="M302.679 24.393c-1.7-1.078-1.835-1.566-1.407-5.06.293-2.394.304-3.522.05-5.126-.53-3.353-.457-3.947.6-4.911 1.859-1.696 5.132-1.732 7.098-.079 1.02.858 1.05 1.126.642 5.683-.157 1.75-.118 3.381.119 5.013.323 2.23.31 2.486-.18 3.285-.741 1.208-2.136 1.801-4.233 1.802-1.331 0-1.953-.14-2.689-.607z" fill="#0062A7"/></g></svg>